<svg xmlns="http://www.w3.org/2000/svg" width="89.292px" height="69.218px" viewBox="44.646 738.168 89.292 69.218" fill-rule="evenodd">
<path style="stroke:none; fill:#007ea9" d="M 46.605 738.168L 45.9937 744.292L 46.6191 744.292L 48.7432 741.57L 49.8037 741.57L 47.3955 744.686L 49.4907 747.884L 48.2661 747.884L 46.4561 745.04L 45.9248 745.04L 45.6538 747.884L 44.646 747.884L 45.6123 738.249L 46.605 738.168z"/>
<path style="stroke:none; fill:#007ea9" d="M 55.2065 747.857L 54.2271 747.884L 54.1997 746.551C 52.9883 747.721 52.6206 747.939 51.981 747.939C 51.2051 747.939 50.5796 747.354 50.5796 745.775C 50.5796 743.067 51.6958 741.447 53.5327 741.447C 54.1313 741.447 54.9346 741.57 55.5742 741.76L 55.1802 745.816L 55.2065 747.857zM 54.5264 742.441C 54.1724 742.359 53.7368 742.291 53.4106 742.291C 52.2266 742.291 51.6138 743.516 51.6138 745.666C 51.6138 746.632 51.8999 747 52.2944 747C 52.6616 747 53.0435 746.701 54.2134 745.585L 54.5264 742.441z"/>
<path style="stroke:none; fill:#007ea9" d="M 59.9287 741.447C 60.2686 741.447 60.6235 741.488 60.9907 741.57L 61.3306 738.235L 62.3237 738.168L 61.5762 745.816L 61.6025 747.857L 60.6235 747.884L 60.5952 746.551C 59.3848 747.721 59.0176 747.939 58.3774 747.939C 57.6011 747.939 56.9756 747.354 56.9756 745.775C 56.9756 743.067 58.0913 741.447 59.9287 741.447zM 58.6899 747C 59.0581 747 59.439 746.701 60.6094 745.585L 60.9229 742.441C 60.5688 742.359 60.1328 742.291 59.8071 742.291C 58.6221 742.291 58.0103 743.516 58.0103 745.666C 58.0103 746.632 58.2954 747 58.6899 747z"/>
<path style="stroke:none; fill:#007ea9" d="M 67.999 747.857L 67.019 747.884L 66.9927 746.551C 65.7813 747.721 65.4131 747.939 64.7739 747.939C 63.9976 747.939 63.3721 747.354 63.3721 745.775C 63.3721 743.067 64.4873 741.447 66.3252 741.447C 66.9233 741.447 67.7261 741.57 68.3672 741.76L 67.9727 745.816L 67.999 747.857zM 67.3184 742.441C 66.9644 742.359 66.5293 742.291 66.2026 742.291C 65.0181 742.291 64.4058 743.516 64.4058 745.666C 64.4058 746.632 64.6914 747 65.0864 747C 65.4536 747 65.835 746.701 67.0059 745.585L 67.3184 742.441z"/>
<path style="stroke:none; fill:#007ea9" d="M 73.0073 742.441C 72.5439 742.305 72.1636 742.236 71.7544 742.236C 71.1563 742.236 70.9116 742.591 70.9116 743.012C 70.9116 743.462 71.0342 743.72 71.6733 744.264C 72.8706 745.272 73.061 745.626 73.061 746.265C 73.061 747.272 72.354 747.966 71.1431 747.966C 70.5029 747.966 69.8638 747.817 69.333 747.49L 69.6182 746.701C 70.1499 746.959 70.7339 747.109 71.1968 747.109C 71.8096 747.109 72.0952 746.81 72.0952 746.374C 72.0952 745.952 71.9595 745.72 71.1431 745.081C 70.2031 744.346 69.9316 743.829 69.9316 743.081C 69.9316 742.236 70.5298 741.42 71.7412 741.42C 72.3398 741.42 72.7749 741.488 73.2114 741.651L 73.0073 742.441z"/>
<path style="stroke:none; fill:#007ea9" d="M 76.1777 741.57L 77.7837 741.57L 77.689 742.373L 76.1099 742.373L 75.77 745.775C 75.7295 746.115 75.7295 746.456 75.7295 746.66C 75.7295 746.986 75.8511 747.054 76.1099 747.054C 76.3276 747.054 76.7632 746.959 77.3481 746.755L 77.5254 747.517C 76.8179 747.83 76.2593 747.953 75.7021 747.953C 75.021 747.953 74.667 747.598 74.667 746.891C 74.667 746.646 74.6812 746.374 74.7222 745.925L 75.0889 742.359L 74.1777 742.332L 74.2456 741.638L 75.1851 741.57L 75.5112 739.392L 76.354 739.365L 76.1777 741.57z"/>
<path style="stroke:none; fill:#007ea9" d="M 79.7036 744.931C 79.689 745.094 79.689 745.244 79.689 745.353C 79.689 746.687 80.1108 747.095 80.8594 747.095C 81.335 747.095 81.9614 746.959 82.9688 746.442L 83.2549 747.218C 82.1929 747.762 81.4585 747.966 80.6548 747.966C 79.3896 747.966 78.6548 747.191 78.6548 745.489C 78.6548 743.067 79.6621 741.393 81.3901 741.393C 82.5601 741.393 83.1055 742.005 83.1055 743.081C 83.1055 743.421 83.0234 744.183 82.8872 744.741L 79.7036 744.931zM 82.0708 744.006C 82.125 743.707 82.1523 743.339 82.1523 743.175C 82.1523 742.508 81.853 742.196 81.2681 742.196C 80.4785 742.196 79.9883 742.917 79.7983 744.156L 82.0708 744.006z"/>
<path style="stroke:none; fill:#007ea9" d="M 85.6367 747.884L 84.6162 747.884L 85.2422 741.556L 86.126 741.556L 86.0049 743.162C 87.0391 741.638 87.2158 741.461 87.7598 741.461C 88.0459 741.461 88.2637 741.502 88.4678 741.556L 88.3037 742.468C 88.1143 742.454 87.9648 742.441 87.7998 742.441C 87.4189 742.441 87.2559 742.645 85.9502 744.428L 85.6367 747.884z"/>
<path style="stroke:none; fill:#007ea9" d="M 95.9668 781.206L 108.35 739.371L 98.7363 739.371L 81.7212 796.822L 95.9668 781.206z"/>
<path style="stroke:none; fill:#00387d" d="M 110.234 765.513L 103.75 772.621L 122.785 807.386L 133.938 807.386L 110.234 765.513z"/>
<path style="stroke:none; fill:none" d="M 178.584 841.994L 0 841.994L 0 703.559L 178.584 703.559L 178.584 841.994z"/>
</svg>
